<?xml version="1.0" encoding="UTF-8"?>
<svg width="99.8374384px" height="97.2019704px" viewBox="0 0 99.8374384 97.2019704" version="1.1" xmlns="http://www.w3.org/2000/svg" xmlns:xlink="http://www.w3.org/1999/xlink">
    <title>Containers / Currency</title>
    <g id="Symbols" stroke="none" stroke-width="1" fill="none" fill-rule="evenodd">
        <g id="Screens-/-Home" transform="translate(-31.5, -344.5)">
            <g id="Containers-/-Currency" transform="translate(32, 345)">
                <polygon id="Container" stroke="#203140" fill-opacity="0.360358392" fill="#203140" points="0 0 6.58389599e-14 96.2019704 88.8669951 96.2019704 98.8374384 86.2315271 98.8374384 -8.27799788e-14"></polygon>
                <g id="Icons-/-Currency-/-Bitcoin" transform="translate(30, 16)" fill-rule="nonzero">
                    <path d="M39.9609756,19.9804878 C39.9609756,31.0154258 31.0154258,39.9609756 19.9804878,39.9609756 C14.1633115,39.9609756 8.92679263,37.4752398 5.27566431,33.5076858 C4.3166009,32.4662539 3.46763405,31.3220651 2.74507437,30.0946923 C1.00065545,27.1277937 0,23.6707616 0,19.9804878 C0,8.94554983 8.94554983,-3.55271368e-15 19.9804878,-3.55271368e-15 C23.6715771,-3.55271368e-15 27.1286093,1.00065545 30.0946923,2.7458899 C31.3220651,3.46763405 32.4654383,4.3166009 33.5068703,5.27647984 C37.4744243,8.9259771 39.9609756,14.1633115 39.9609756,19.9804878 Z" id="Path" fill="#F0CD00"></path>
                    <path d="M39.9609756,19.9804878 C39.9609756,30.7666891 31.4150355,39.5564727 20.7242513,39.9471116 C10.033467,39.5564727 1.48752693,30.7666891 1.48752693,19.9804878 C1.48752693,9.19428651 10.033467,0.404502937 20.7242513,0.0138640119 C31.4150355,0.404502937 39.9609756,9.19428651 39.9609756,19.9804878 Z" id="Path" fill="#FFDE50"></path>
                    <path d="M33.5068703,5.27647984 L5.27566431,33.5076858 C4.3166009,32.4662539 3.46763405,31.3220651 2.74507437,30.0946923 L30.0946923,2.7458899 C31.3220651,3.46763405 32.4654383,4.3166009 33.5068703,5.27647984 Z" id="Path" fill="#FFEA94"></path>
                    <path d="M38.5827297,12.6757846 L12.674969,38.5835452 C10.8408418,37.8626166 9.13883046,36.8782718 7.61623574,35.6769959 L35.6769959,7.61623574 C36.8782718,9.13883046 37.8626166,10.8408418 38.5827297,12.6757846 Z" id="Path" fill="#FFEA94"></path>
                    <path d="M35.5065501,19.9804878 C35.5065501,28.5549714 28.5549714,35.5065501 19.9804878,35.5065501 C16.9940165,35.5065501 14.2049035,34.663292 11.8374196,33.201862 C10.805774,32.5657485 9.8548659,31.8113832 9.0018214,30.9583387 C8.37467875,30.3320115 7.80054555,29.6510439 7.2875771,28.9244066 C6.58132802,27.9237511 5.99006869,26.8358339 5.53418736,25.6802278 C4.85892842,23.9716922 4.47889139,22.1139146 4.45605655,20.1713219 C4.45442549,20.1077105 4.45442549,20.0440992 4.45442549,19.9804878 C4.45442549,11.4060042 11.4051887,4.45442549 19.9804878,4.45442549 C20.0440992,4.45442549 20.108526,4.45442549 20.1721374,4.45605655 C22.1147301,4.47889139 23.9716922,4.85974395 25.6802278,5.53418736 C26.8358339,5.99088422 27.9237511,6.58132802 28.9244066,7.2875771 C29.6510439,7.80136108 30.331196,8.37467875 30.9583387,9.0018214 C31.8113832,9.85405037 32.5657485,10.805774 33.201862,11.8374196 C34.663292,14.2049035 35.5065501,16.9940165 35.5065501,19.9804878 Z" id="Path" fill="#FAA300"></path>
                    <path d="M30.9583387,9.0018214 L9.0018214,30.9583387 C8.37467875,30.3320115 7.80054555,29.6510439 7.2875771,28.9244066 C6.58132802,27.9237511 5.99006869,26.8358339 5.53418736,25.6802278 C4.85892842,23.9716922 4.47889139,22.1139146 4.45605655,20.1713219 C4.45442549,20.1077105 4.45442549,20.0440992 4.45442549,19.9804878 C4.45442549,11.4060042 11.4051887,4.45442549 19.9804878,4.45442549 C20.0440992,4.45442549 20.108526,4.45442549 20.1721374,4.45605655 C22.1147301,4.47889139 23.9716922,4.85974395 25.6802278,5.53418736 C26.8358339,5.99088422 27.9237511,6.58132802 28.9244066,7.2875771 C29.6510439,7.80136108 30.331196,8.37467875 30.9583387,9.0018214 Z" id="Path" fill="#FFBD00"></path>
                    <path d="M35.5061424,19.9804878 C35.5061424,28.5549714 28.5545637,35.5065501 19.98008,35.5065501 C19.6856737,35.5065501 19.3937139,35.4983948 19.1033852,35.4820842 C27.2701037,35.0278339 33.7519371,28.2605651 33.7519371,19.9804878 C33.7519371,11.7004106 27.2701037,4.93314166 19.1033852,4.47889139 C19.3937139,4.46258079 19.6856737,4.45442549 19.98008,4.45442549 C28.5545637,4.45442549 35.5061424,11.4060042 35.5061424,19.9804878 Z" id="Path" fill="#F68E00"></path>
                    <path d="M27.0363728,23.9004964 C27.0363728,21.8297839 25.9661526,20.005443 24.350669,18.9481082 C25.0145105,18.0333281 25.407433,16.9097723 25.407433,15.695611 C25.407433,13.5988016 24.2386152,11.7702199 22.5184991,10.8260807 L22.5184991,8.81555433 C22.5184991,7.91471976 21.7882734,7.1844941 20.8874388,7.1844941 C19.9866043,7.1844941 19.2563786,7.91471976 19.2563786,8.81555433 L19.2563786,10.1445422 L17.287852,10.1445422 L17.287852,8.81555433 C17.287852,7.91471976 16.5576264,7.1844941 15.6567918,7.1844941 C14.7559572,7.1844941 14.0257316,7.91471976 14.0257316,8.81555433 L14.0257316,10.1445422 L12.1089911,10.1445422 C11.2081566,10.1445422 10.4779309,10.8747679 10.4779309,11.7756024 C10.4779309,12.676437 11.2081566,13.4066627 12.1089911,13.4066627 L12.67187,13.4066627 L12.67187,19.6157012 L12.67187,26.554313 L12.1089911,26.554313 C11.2081566,26.554313 10.4779309,27.2845386 10.4779309,28.1853732 C10.4779309,29.0862077 11.2081566,29.8164334 12.1089911,29.8164334 L14.0258131,29.8164334 L14.0258131,31.1454213 C14.0258131,32.0462558 14.7560388,32.7764815 15.6568733,32.7764815 C16.5577079,32.7764815 17.2879336,32.0462558 17.2879336,31.1454213 L17.2879336,29.8164334 L19.2564602,29.8164334 L19.2564602,31.1454213 C19.2564602,32.0462558 19.9866858,32.7764815 20.8875204,32.7764815 C21.788355,32.7764815 22.5185806,32.0462558 22.5185806,31.1454213 L22.5185806,29.648108 C25.1078072,29.018111 27.0363728,26.6809648 27.0363728,23.9004964 Z M15.9339905,13.4066627 L19.8563641,13.4066627 C21.1185601,13.4066627 22.1453125,14.4334966 22.1453125,15.695611 C22.1453125,16.9577254 21.1184785,17.9845594 19.8563641,17.9845594 L15.9339905,17.9845594 L15.9339905,13.4066627 Z M21.1205174,26.554313 L15.9339905,26.554313 L15.9339905,21.2467614 L19.8563641,21.2467614 L21.1205174,21.2467614 C22.5837415,21.2467614 23.7742523,22.4372723 23.7742523,23.900578 C23.7742523,25.3638836 22.5837415,26.554313 21.1205174,26.554313 Z" id="Shape" fill="#F68E00"></path>
                    <path d="M29.0752796,23.9004964 C29.0752796,21.8297839 28.0050595,20.005443 26.3895759,18.9481082 C27.0534174,18.0333281 27.4463398,16.9097723 27.4463398,15.695611 C27.4463398,13.5988016 26.277522,11.7702199 24.5574059,10.8260807 L24.5574059,8.81555433 C24.5574059,7.91471976 23.8271802,7.1844941 22.9263457,7.1844941 C22.0255111,7.1844941 21.2952855,7.91471976 21.2952855,8.81555433 L21.2952855,10.1445422 L19.3267589,10.1445422 L19.3267589,8.81555433 C19.3267589,7.91471976 18.5965332,7.1844941 17.6956986,7.1844941 C16.7948641,7.1844941 16.0646384,7.91471976 16.0646384,8.81555433 L16.0646384,10.1445422 L14.1478164,10.1445422 C13.2469819,10.1445422 12.5167562,10.8747679 12.5167562,11.7756024 C12.5167562,12.676437 13.2469819,13.4066627 14.1478164,13.4066627 L14.7106953,13.4066627 L14.7106953,19.6157012 L14.7106953,26.554313 L14.1478164,26.554313 C13.2469819,26.554313 12.5167562,27.2845386 12.5167562,28.1853732 C12.5167562,29.0862077 13.2469819,29.8164334 14.1478164,29.8164334 L16.0646384,29.8164334 L16.0646384,31.1454213 C16.0646384,32.0462558 16.7948641,32.7764815 17.6956986,32.7764815 C18.5965332,32.7764815 19.3267589,32.0462558 19.3267589,31.1454213 L19.3267589,29.8164334 L21.2952855,29.8164334 L21.2952855,31.1454213 C21.2952855,32.0462558 22.0255111,32.7764815 22.9263457,32.7764815 C23.8271802,32.7764815 24.5574059,32.0462558 24.5574059,31.1454213 L24.5574059,29.648108 C27.1467956,29.018111 29.0752796,26.6809648 29.0752796,23.9004964 Z M17.9728973,13.4066627 L21.895271,13.4066627 C23.1574669,13.4066627 24.1842193,14.4334966 24.1842193,15.695611 C24.1842193,16.9577254 23.1573854,17.9845594 21.895271,17.9845594 L17.9728973,17.9845594 L17.9728973,13.4066627 L17.9728973,13.4066627 Z M23.1594242,26.554313 L17.9728973,26.554313 L17.9728973,21.2467614 L21.895271,21.2467614 L23.1594242,21.2467614 C24.6226483,21.2467614 25.8131592,22.4372723 25.8131592,23.900578 C25.8131592,25.3638836 24.6227299,26.554313 23.1594242,26.554313 Z" id="Shape" fill="#FFEA94"></path>
                </g>
                <text id="Currency-name" font-family="Exo2-SemiBold, Exo 2" font-size="14" font-weight="500" fill="#2E485B">
                    <tspan x="27.39" y="81">Bitcoin</tspan>
                </text>
            </g>
        </g>
    </g>
</svg>