<?xml version="1.0" encoding="UTF-8"?>
<svg width="99.8374384px" height="97.2019704px" viewBox="0 0 99.8374384 97.2019704" version="1.1" xmlns="http://www.w3.org/2000/svg" xmlns:xlink="http://www.w3.org/1999/xlink">
    <title>Containers / Currency</title>
    <g id="Symbols" stroke="none" stroke-width="1" fill="none" fill-rule="evenodd">
        <g id="Screens-/-Home" transform="translate(-156.5, -344.5)">
            <g id="Containers-/-Currency" transform="translate(157, 345)">
                <polygon id="Container" stroke="#203140" fill-opacity="0.360358392" fill="#203140" points="0 0 6.58389599e-14 96.2019704 88.8669951 96.2019704 98.8374384 86.2315271 98.8374384 -8.27799788e-14"></polygon>
                <g id="Icons-/-Currency-/-Bitcoin" transform="translate(30, 16)" fill-rule="nonzero">
                    <g id="bitcoin" transform="translate(0, -0)">
                        <path d="M39.9609756,19.9804878 C39.9609756,31.0154258 31.0154258,39.9609756 19.9804878,39.9609756 C14.1633115,39.9609756 8.92679263,37.4752398 5.27566431,33.5076858 C4.3166009,32.4662539 3.46763405,31.3220651 2.74507437,30.0946923 C1.00065545,27.1277937 0,23.6707616 0,19.9804878 C0,8.94554983 8.94554983,0 19.9804878,0 C23.6715771,0 27.1286093,1.00065545 30.0946923,2.7458899 C31.3220651,3.46763405 32.4654383,4.3166009 33.5068703,5.27647984 C37.4744243,8.9259771 39.9609756,14.1633115 39.9609756,19.9804878 Z" id="Path" fill="#66E289"></path>
                        <path d="M39.9609756,19.9804878 C39.9609756,30.7666891 31.4150355,39.5564727 20.7242513,39.9471116 C10.033467,39.5564727 1.48752693,30.7666891 1.48752693,19.9804878 C1.48752693,9.19428651 10.033467,0.404502937 20.7242513,0.0138640119 C31.4150355,0.404502937 39.9609756,9.19428651 39.9609756,19.9804878 Z" id="Path" fill="#91FFB0"></path>
                        <path d="M33.5068703,5.27647984 L5.27566431,33.5076858 C4.3166009,32.4662539 3.46763405,31.3220651 2.74507437,30.0946923 L30.0946923,2.7458899 C31.3220651,3.46763405 32.4654383,4.3166009 33.5068703,5.27647984 Z" id="Path" fill="#D1FFDE"></path>
                        <path d="M38.5827297,12.6757846 L12.674969,38.5835452 C10.8408418,37.8626166 9.13883046,36.8782718 7.61623574,35.6769959 L35.6769959,7.61623574 C36.8782718,9.13883046 37.8626166,10.8408418 38.5827297,12.6757846 Z" id="Path" fill="#D1FFDE"></path>
                        <path d="M35.5065501,19.9804878 C35.5065501,28.5549714 28.5549714,35.5065501 19.9804878,35.5065501 C16.9940165,35.5065501 14.2049035,34.663292 11.8374196,33.201862 C10.805774,32.5657485 9.8548659,31.8113832 9.0018214,30.9583387 C8.37467875,30.3320115 7.80054555,29.6510439 7.2875771,28.9244066 C6.58132802,27.9237511 5.99006869,26.8358339 5.53418736,25.6802278 C4.85892842,23.9716922 4.47889139,22.1139146 4.45605655,20.1713219 C4.45442549,20.1077105 4.45442549,20.0440992 4.45442549,19.9804878 C4.45442549,11.4060042 11.4051887,4.45442549 19.9804878,4.45442549 C20.0440992,4.45442549 20.108526,4.45442549 20.1721374,4.45605655 C22.1147301,4.47889139 23.9716922,4.85974395 25.6802278,5.53418736 C26.8358339,5.99088422 27.9237511,6.58132802 28.9244066,7.2875771 C29.6510439,7.80136108 30.331196,8.37467875 30.9583387,9.0018214 C31.8113832,9.85405037 32.5657485,10.805774 33.201862,11.8374196 C34.663292,14.2049035 35.5065501,16.9940165 35.5065501,19.9804878 Z" id="Path" fill="#40B761"></path>
                        <path d="M30.9583387,9.0018214 L9.0018214,30.9583387 C8.37467875,30.3320115 7.80054555,29.6510439 7.2875771,28.9244066 C6.58132802,27.9237511 5.99006869,26.8358339 5.53418736,25.6802278 C4.85892842,23.9716922 4.47889139,22.1139146 4.45605655,20.1713219 C4.45442549,20.1077105 4.45442549,20.0440992 4.45442549,19.9804878 C4.45442549,11.4060042 11.4051887,4.45442549 19.9804878,4.45442549 C20.0440992,4.45442549 20.108526,4.45442549 20.1721374,4.45605655 C22.1147301,4.47889139 23.9716922,4.85974395 25.6802278,5.53418736 C26.8358339,5.99088422 27.9237511,6.58132802 28.9244066,7.2875771 C29.6510439,7.80136108 30.331196,8.37467875 30.9583387,9.0018214 Z" id="Path" fill="#6FD28B"></path>
                        <path d="M35.5061424,19.9804878 C35.5061424,28.5549714 28.5545637,35.5065501 19.98008,35.5065501 C19.6856737,35.5065501 19.3937139,35.4983948 19.1033852,35.4820842 C27.2701037,35.0278339 33.7519371,28.2605651 33.7519371,19.9804878 C33.7519371,11.7004106 27.2701037,4.93314166 19.1033852,4.47889139 C19.3937139,4.46258079 19.6856737,4.45442549 19.98008,4.45442549 C28.5545637,4.45442549 35.5061424,11.4060042 35.5061424,19.9804878 Z" id="Path" fill="#43A15D"></path>
                        <g id="Group" transform="translate(8.3333, 8.3333)" fill="#4FAF6A">
                            <path d="M17.0141162,16.7292623 L8.697028,26.4609298 L0.379939777,16.7292623 L8.697028,19.8095606 L17.0141162,16.7292623 Z M8.697028,0 L17.3938541,14.9349451 L8.697028,18.1561563 L0,14.9349451 L8.697028,0 Z" id="Combined-Shape"></path>
                        </g>
                        <g id="Group" transform="translate(11.6667, 6.6667)">
                            <polygon id="Path" fill="#93ECAC" points="17.3938541 14.9349451 8.697028 18.1561563 0 14.9349451 8.697028 0"></polygon>
                            <polygon id="Path" fill="#93ECAC" points="17.0141162 16.7292623 8.697028 26.4609298 0.379939777 16.7292623 8.697028 19.8095606"></polygon>
                            <polygon id="Path" fill="#C0FFD2" points="8.697028 19.8095606 17.0141162 16.7292623 8.697028 26.4609298"></polygon>
                            <polygon id="Path" fill="#C0FFD2" points="17.3938541 14.9349451 8.697028 18.1561563 8.697028 0"></polygon>
                        </g>
                    </g>
                </g>
                <text id="Currency-name" font-family="Exo2-SemiBold, Exo 2" font-size="14" font-weight="500" fill="#2E485B">
                    <tspan x="18.206" y="81">Ethereum</tspan>
                </text>
            </g>
        </g>
    </g>
</svg>