
<svg width="30px" height="40px" viewBox="0 0 30 40" version="1.1" xmlns="http://www.w3.org/2000/svg" xmlns:xlink="http://www.w3.org/1999/xlink">
    <g id="Symbols" stroke="none" stroke-width="1" fill="none" fill-rule="evenodd">
        <g id="Bottom-Nav" transform="translate(-32, -23.5)" fill="#36ACFD">
            <g id="Group-2" transform="translate(32, 23.5)">
                <circle id="Selector" cx="15.5" cy="37.5" r="2.5"></circle>
                <g id="Icons-/-Outline-/-Home" transform="translate(3.125, 2.5)">
                    <path d="M8.30466541,23.4776383 L8.30466541,19.6440561 C8.30464606,18.6726127 9.09458795,17.8833844 10.0730443,17.8772747 L13.6657634,17.8772747 C14.6485934,17.8772747 15.4453346,18.6682897 15.4453346,19.6440561 L15.4453346,19.6440561 L15.4453346,23.4665265 C15.4453123,24.3090976 16.1300276,24.9938538 16.9786758,25 L19.4297832,25 C20.5745455,25.0029114 21.6734403,24.5534926 22.4839615,23.7508813 C23.2944826,22.9482701 23.75,21.8584426 23.75,20.7219039 L23.75,9.83230797 C23.75,8.91423454 23.3400868,8.04339066 22.6307729,7.45437581 L14.3037229,0.842835443 C12.8481414,-0.313596905 10.769216,-0.276239725 9.35673893,0.931730103 C9.35673893,0.931730103 1.20876532,7.45437581 1.20876532,7.45437581 C0.46592585,8.02602702 0.0219403655,8.89945328 0,9.83230797 L0,20.710792 C0,23.0796338 1.93422693,25 4.32021678,25 L6.71536287,25 C7.12396598,25.0029205 7.51685879,24.8438418 7.80684127,24.5580296 C8.09682375,24.2722175 8.25990721,23.8833156 8.25989632,23.4776383 L8.30466541,23.4776383 Z" id="Home"></path>
                </g>
            </g>
        </g>
    </g>
</svg>