<?xml version="1.0" encoding="UTF-8"?>
<svg width="99.8374384px" height="97.2019704px" viewBox="0 0 99.8374384 97.2019704" version="1.1" xmlns="http://www.w3.org/2000/svg" xmlns:xlink="http://www.w3.org/1999/xlink">
    <title>Containers / Currency</title>
    <g id="Symbols" stroke="none" stroke-width="1" fill="none" fill-rule="evenodd">
        <g id="Screens-/-Home" transform="translate(-282.5, -344.5)">
            <g id="Containers-/-Currency" transform="translate(283, 345)">
                <polygon id="Container" stroke="#203140" fill-opacity="0.360358392" fill="#203140" points="0 0 6.58389599e-14 96.2019704 88.8669951 96.2019704 98.8374384 86.2315271 98.8374384 -8.27799788e-14"></polygon>
                <g id="Icons-/-Currency-/-Bitcoin" transform="translate(30, 16)" fill-rule="nonzero">
                    <g id="litecoin">
                        <g id="Group">
                            <path d="M40,20 C40,31.0457143 31.0457143,40 20,40 C14.1771429,40 8.9355102,37.5118367 5.28081633,33.5404082 C4.32081633,32.4979592 3.47102041,31.3526531 2.7477551,30.1240816 C1.00163265,27.1542857 0,23.6938776 0,20 C0,8.95428571 8.95428571,0 20,0 C23.6946939,0 27.155102,1.00163265 30.1240816,2.74857143 C31.3526531,3.47102041 32.4971429,4.32081633 33.5395918,5.28163265 C37.5110204,8.93469388 40,14.1771429 40,20 Z" id="Path" fill="#EC365D"></path>
                            <path d="M40,20 C40,30.7967347 31.4457143,39.595102 20.7444898,39.9861224 C10.0432653,39.595102 1.48897959,30.7967347 1.48897959,20 C1.48897959,9.20326531 10.0432653,0.404897959 20.7444898,0.013877551 C31.4457143,0.404897959 40,9.20326531 40,20 Z" id="Path" fill="#FF557A"></path>
                            <path d="M33.5395918,5.28163265 L5.28081633,33.5404082 C4.32081633,32.4979592 3.47102041,31.3526531 2.7477551,30.1240816 L30.1240816,2.74857143 C31.3526531,3.47102041 32.4971429,4.32081633 33.5395918,5.28163265 Z" id="Path" fill="#FB829D"></path>
                            <path d="M38.6204082,12.6881633 L12.6873469,38.6212245 C10.8514286,37.8995918 9.1477551,36.9142857 7.62367347,35.7118367 L35.7118367,7.62367347 C36.9142857,9.1477551 37.8995918,10.8514286 38.6204082,12.6881633 Z" id="Path" fill="#FB829D"></path>
                            <path d="M35.5412245,20 C35.5412245,28.5828571 28.5828571,35.5412245 20,35.5412245 C17.0106122,35.5412245 14.2187755,34.6971429 11.8489796,33.2342857 C10.8163265,32.597551 9.8644898,31.842449 9.01061224,30.9885714 C8.38285714,30.3616327 7.80816327,29.68 7.29469388,28.9526531 C6.5877551,27.9510204 5.99591837,26.8620408 5.53959184,25.7053061 C4.86367347,23.995102 4.48326531,22.1355102 4.46040816,20.1910204 C4.45877551,20.1273469 4.45877551,20.0636735 4.45877551,20 C4.45877551,11.4171429 11.4163265,4.45877551 20,4.45877551 C20.0636735,4.45877551 20.1281633,4.45877551 20.1918367,4.46040816 C22.1363265,4.48326531 23.995102,4.8644898 25.7053061,5.53959184 C26.8620408,5.99673469 27.9510204,6.5877551 28.9526531,7.29469388 C29.68,7.80897959 30.3608163,8.38285714 30.9885714,9.01061224 C31.842449,9.86367347 32.597551,10.8163265 33.2342857,11.8489796 C34.6971429,14.2187755 35.5412245,17.0106122 35.5412245,20 Z" id="Path" fill="#D12349"></path>
                            <path d="M30.9885714,9.01061224 L9.01061224,30.9885714 C8.38285714,30.3616327 7.80816327,29.68 7.29469388,28.9526531 C6.5877551,27.9510204 5.99591837,26.8620408 5.53959184,25.7053061 C4.86367347,23.995102 4.48326531,22.1355102 4.46040816,20.1910204 C4.45877551,20.1273469 4.45877551,20.0636735 4.45877551,20 C4.45877551,11.4171429 11.4163265,4.45877551 20,4.45877551 C20.0636735,4.45877551 20.1281633,4.45877551 20.1918367,4.46040816 C22.1363265,4.48326531 23.995102,4.8644898 25.7053061,5.53959184 C26.8620408,5.99673469 27.9510204,6.5877551 28.9526531,7.29469388 C29.68,7.80897959 30.3608163,8.38285714 30.9885714,9.01061224 Z" id="Path" fill="#E24264"></path>
                            <path d="M35.5408163,20 C35.5408163,28.5828571 28.582449,35.5412245 19.9995918,35.5412245 C19.704898,35.5412245 19.4126531,35.5330612 19.1220408,35.5167347 C27.2967347,35.0620408 33.784898,28.2881633 33.784898,20 C33.784898,11.7118367 27.2967347,4.93795918 19.1220408,4.48326531 C19.4126531,4.46693878 19.704898,4.45877551 19.9995918,4.45877551 C28.582449,4.45877551 35.5408163,11.4171429 35.5408163,20 Z" id="Path" fill="#AA2844"></path>
                        </g>
                        <path d="M24.5980408,26.7160816 L14.9223673,26.7160816 L17.5156735,20.6019592 L22.3713469,18.8934694 C23.2218776,18.5942041 23.6688163,17.6620408 23.369551,16.8115102 C23.0702857,15.9609796 22.1381224,15.5139592 21.2875918,15.8133061 L19.2414694,16.5332245 L22.1460408,9.68530612 C22.4981224,8.85526531 22.1106122,7.89681633 21.2804898,7.54473469 C20.4506122,7.19273469 19.4920816,7.58016327 19.1399184,8.41028571 L15.0723265,18.0000816 L10.608898,19.5705306 C9.75836735,19.8697959 9.31142857,20.8019592 9.61069388,21.6524898 C9.84693878,22.3238367 10.4773061,22.7436735 11.1507755,22.7436735 C11.3305306,22.7436735 11.5134694,22.7137143 11.6926531,22.6506939 L13.3465306,22.0688163 L10.9533061,27.7111837 C10.7394286,28.2154286 10.7926531,28.7933061 11.0950204,29.2500408 C11.3973878,29.7067755 11.9086531,29.9813878 12.4563265,29.9813878 L24.5979592,29.9813878 C25.4996735,29.9813878 26.2306122,29.250449 26.2306122,28.3487347 C26.2306122,27.4470204 25.4997551,26.7160816 24.5980408,26.7160816 Z" id="Path" fill="#B7314D"></path>
                        <path d="M26.6390204,26.7160816 L16.9633469,26.7160816 L19.5566531,20.6019592 L24.4123265,18.8934694 C25.2628571,18.5942041 25.7097959,17.6620408 25.4105306,16.8115102 C25.1112653,15.9609796 24.179102,15.5139592 23.3285714,15.8133061 L21.282449,16.5332245 L24.1870204,9.68530612 C24.539102,8.85526531 24.1515918,7.89681633 23.3214694,7.54473469 C22.4915918,7.19273469 21.5330612,7.58016327 21.180898,8.41028571 L17.1133061,18.0000816 L12.6498776,19.5705306 C11.7993469,19.8697959 11.3524082,20.8019592 11.6516735,21.6524898 C11.8879184,22.3238367 12.5182857,22.7436735 13.1917551,22.7436735 C13.3715102,22.7436735 13.554449,22.7137143 13.7336327,22.6506939 L15.3875102,22.0688163 L12.9942857,27.7111837 C12.7804082,28.2154286 12.8336327,28.7933061 13.136,29.2500408 C13.4383673,29.7067755 13.9496327,29.9813878 14.4973061,29.9813878 L26.6389388,29.9813878 C27.5406531,29.9813878 28.2715918,29.250449 28.2715918,28.3487347 C28.2715918,27.4470204 27.5407347,26.7160816 26.6390204,26.7160816 Z" id="Path" fill="#F6CAD4"></path>
                    </g>
                </g>
                <text id="Currency-name" font-family="Exo2-SemiBold, Exo 2" font-size="14" font-weight="500" fill="#2E485B">
                    <tspan x="24.268" y="81">Litecoin</tspan>
                </text>
            </g>
        </g>
    </g>
</svg>