<?xml version="1.0" encoding="UTF-8"?>
<svg width="24px" height="24px" viewBox="0 0 24 24" version="1.1" xmlns="http://www.w3.org/2000/svg" xmlns:xlink="http://www.w3.org/1999/xlink">
    <title>Icons / Menu</title>
    <g id="Icons-/-Menu" stroke="none" stroke-width="1" fill="none" fill-rule="evenodd">
        <path d="M1.948,15.3333333 C1.426,15.3333333 1,15.9026667 1,16.5986667 L1,16.7346667 C1,17.4306667 1.426,18 1.948,18 L13.4997,18 C14.0217,18 14.4487,17.4306667 14.4487,16.7346667 L14.4487,16.5986667 C14.4487,15.9026667 14.0217,15.3333333 13.4997,15.3333333 L1.948,15.3333333 Z M1.948,6 C1.426,6 1,6.56933333 1,7.26533333 L1,7.40133333 C1,8.09733333 1.426,8.66666667 1.948,8.66666667 L21.051,8.66666667 C21.573,8.66666667 22,8.09733333 22,7.40133333 L22,7.26533333 C22,6.56933333 21.573,6 21.051,6 L1.948,6 Z" id="Color" fill="white"></path>
    </g>
</svg>