<?xml version="1.0" encoding="UTF-8"?>
<svg width="25.7994852px" height="30px" viewBox="0 0 25.7994852 25.8795768" version="1.1" xmlns="http://www.w3.org/2000/svg" xmlns:xlink="http://www.w3.org/1999/xlink">
    <title>Icons / Outline / Home</title>
    <g id="Symbols" stroke="none" stroke-width="1" fill="none" fill-rule="evenodd">
        <g id="Bottom-Nav" transform="translate(-194.535, -25.41)" fill="#36ACFD">
            <g id="Icons-/-Outline-/-Home" transform="translate(194.535, 25.41)">
                <path d="M16.1205664,1.05263158 C16.6383334,1.05263158 17.0580664,1.47236463 17.0580664,1.99013158 C17.0580664,2.50789854 16.6383334,2.92763158 16.1205664,2.92763158 L7.0358982,2.92763158 C3.8745514,2.92763158 1.875,5.08454252 1.875,8.42033757 L1.875,18.5233124 C1.875,21.8750148 3.84343499,24.0045768 7.0358982,24.0045768 L17.791047,24.0045768 C20.9551631,24.0045768 22.9519452,21.8560718 22.9519452,18.5233124 L22.9519452,9.7246854 C22.9519452,9.20691845 23.3716782,8.7871854 23.8894452,8.7871854 C24.4072121,8.7871854 24.8269452,9.20691845 24.8269452,9.7246854 L24.8269452,18.5233124 C24.8269452,22.8621701 22.0226215,25.8795768 17.791047,25.8795768 L7.0358982,25.8795768 C2.77351476,25.8795768 0,22.8790349 0,18.5233124 L0,8.42033757 C0,4.07940802 2.80595501,1.05263158 7.0358982,1.05263158 L16.1205664,1.05263158 Z M18.7657065,9.59001346 C19.1749933,9.90713638 19.2497069,10.4960078 18.9325839,10.9052946 L15.2712567,15.6306951 C14.9526406,16.041909 14.3601417,16.1150806 13.951057,15.7937352 L10.4280049,13.0262975 L7.26404405,17.138479 C6.94830931,17.5488376 6.35969434,17.6255454 5.94933573,17.3098107 C5.53897712,16.9940759 5.46226932,16.405461 5.77800406,15.9951024 L9.51942285,11.1324021 C9.83740177,10.7191268 10.4315016,10.6447357 10.8415632,10.9668484 L14.3671336,13.7362643 L17.4504254,9.75689087 C17.7675483,9.34760409 18.3564197,9.27289053 18.7657065,9.59001346 Z M22.4592392,-3.55271368e-15 C24.3040062,-3.55271368e-15 25.7994852,1.49547908 25.7994852,3.34024601 C25.7994852,5.18501294 24.3040062,6.68049201 22.4592392,6.68049201 C20.6144723,6.68049201 19.1189932,5.18501294 19.1189932,3.34024601 C19.1189932,1.49547908 20.6144723,-3.55271368e-15 22.4592392,-3.55271368e-15 Z M22.4592392,1.875 C21.6500062,1.875 20.9939932,2.53101298 20.9939932,3.34024601 C20.9939932,4.14947903 21.6500062,4.80549201 22.4592392,4.80549201 C23.2684723,4.80549201 23.9244852,4.14947903 23.9244852,3.34024601 C23.9244852,2.53101298 23.2684723,1.875 22.4592392,1.875 Z" id="Combined-Shape"></path>
            </g>
        </g>
    </g>
</svg>