
<svg width="24px" height="24px" viewBox="0 0 24 24" version="1.1" xmlns="http://www.w3.org/2000/svg" xmlns:xlink="http://www.w3.org/1999/xlink">
    <g id="Symbols" stroke="none" stroke-width="1" fill="none" fill-rule="evenodd">
        <g id="Screens-/-Home" transform="translate(-358, -48)">
            <g id="Group-2" transform="translate(358, 48)">
                <g id="Icons-/-Notifications" transform="translate(2.7509, 1.25)" fill="#FFFFFF">
                    <path d="M0.000886620568,12.2809917 C0.0397270949,11.4976856 0.290654529,10.7390885 0.727370236,10.0837128 L0.800464625,9.99081844 C1.29365339,9.45667965 1.63598856,8.80692212 1.79486631,8.1056127 L1.80005152,7.27903891 L1.81019228,6.8842023 C1.81976568,6.61023503 1.83459082,6.35591547 1.85634072,6.10703049 C2.18246305,2.62790499 5.54396446,0 9.21019703,0 L9.53162072,0.00387108601 C13.1000214,0.117138632 16.3220498,2.70352775 16.6518011,6.11176694 C16.6711545,6.33334486 16.6794632,6.53017136 16.681972,6.80696819 L16.6850915,7.78806911 C16.6858956,7.82382113 16.6868739,7.85778063 16.6880488,7.89064916 L16.6976368,8.08038071 C16.8564894,8.79472497 17.201676,9.45733261 17.7003294,10.0033705 L17.7674759,10.0885233 C18.2094652,10.7410588 18.4619496,11.5003665 18.4980446,12.318135 L18.496975,12.7516905 C18.466132,13.720193 18.1061948,14.6555836 17.4466783,15.4350425 C16.5731871,16.3508356 15.3895175,16.9197763 14.1315384,17.034155 C10.8829517,17.3826318 7.60535702,17.3826318 4.3658095,17.0350693 C3.09916639,16.9146972 1.91900916,16.3474447 1.00732241,15.3965012 C0.388077306,14.6506968 0.0360231999,13.7269134 0.00188259891,12.7680944 L0,12.5277425 L0.000886620568,12.2809917 Z M1.83814875,11.1438508 C1.63625154,11.5167859 1.52022998,11.9248477 1.4999663,12.318135 L1.4999663,12.5371203 L1.50277156,12.7579432 C1.53363913,13.3696542 1.75981834,13.9549794 2.12494873,14.3975396 C2.75078842,15.0483554 3.59740262,15.4552876 4.51675788,15.5427114 C7.65899128,15.8797796 10.8293175,15.8797796 13.9835753,15.5415194 C14.8929901,15.4587624 15.7390119,15.052115 16.3308069,14.4336664 C16.7338794,13.9560783 16.9659084,13.3655103 16.9956614,12.7380242 L16.9988051,12.3519027 C16.9766912,11.8612391 16.8228453,11.3849472 16.5528196,10.9707583 C15.8840365,10.2230962 15.4241207,9.31657591 15.2191506,8.3400427 L15.205135,8.24042396 C15.1945419,8.09488801 15.1883817,7.96555341 15.1851057,7.8100234 L15.1821528,6.83753476 L15.1750886,6.51609155 C15.1712391,6.42174794 15.1657409,6.33650618 15.1581322,6.24925942 C14.9009471,3.59130853 12.2231826,1.5 9.28781383,1.5 L8.97897263,1.50431716 C6.13486486,1.61046272 3.59218127,3.6611902 3.35022272,6.24228566 C3.33749982,6.38795032 3.32735361,6.53822948 3.31942778,6.69638709 L3.30195506,7.19775921 L3.29711376,7.49942922 L3.2948547,8.18597814 L3.2791988,8.33842074 C3.09707799,9.21573023 2.70618695,10.0359546 2.14100851,10.7328877 L1.9462079,10.9605415 L1.83814875,11.1438508 Z M6.2174834,20.0691177 C6.84037616,20.8509529 7.75311131,21.3558418 8.75371926,21.4735858 C9.75343972,21.5912254 10.7601011,21.3129193 11.5518901,20.6991609 C11.7869481,20.5241105 12.0087391,20.3104878 12.2006841,20.0718988 C12.460326,19.7491622 12.4091776,19.2770511 12.086441,19.0174091 C11.7637043,18.7577672 11.2915932,18.8089156 11.0319513,19.1316523 C10.9194239,19.2715246 10.7891398,19.3970105 10.6441696,19.5050739 C10.1525173,19.8860117 9.53896213,20.0556379 8.9290185,19.9838643 C8.31996237,19.9121951 7.76632565,19.6059452 7.39066933,19.1344334 C7.13256339,18.8104671 6.66070056,18.7570767 6.33673421,19.0151826 C6.01276786,19.2732885 5.95937745,19.7451514 6.2174834,20.0691177 Z" id="Combined-Shape"></path>
                </g>
                <circle id="Oval" stroke="#08060F" stroke-width="3" fill="#BA8231" cx="16.5" cy="2.5" r="4"></circle>
            </g>
        </g>
    </g>
</svg>