<?xml version="1.0" encoding="UTF-8"?>
<svg width="20.8112849px" height="25.9037132px" viewBox="0 0 20.8112849 25.9037132" version="1.1" xmlns="http://www.w3.org/2000/svg" xmlns:xlink="http://www.w3.org/1999/xlink">
    <title>Icons / Outline / Home</title>
    <g id="Symbols" stroke="none" stroke-width="1" fill="none" fill-rule="evenodd">
        <g id="Bottom-Nav" transform="translate(-356.0625, -25.6875)" fill="#36ACFD">
            <g id="Icons-/-Outline-/-Home" transform="translate(356.0625, 25.6875)">
                <path d="M10.4112061,13.8200802 C14.2275158,13.8200802 17.3212461,10.7263498 17.3212461,6.91004008 C17.3212461,3.09373032 14.2275158,0 10.4112061,0 C6.59489632,0 3.501166,3.09373032 3.501166,6.91004008 C3.501166,10.7263498 6.59489632,13.8200802 10.4112061,13.8200802 Z M10.4112061,11.9450802 C7.63043022,11.9450802 5.376166,9.69081592 5.376166,6.91004008 C5.376166,4.12926423 7.63043022,1.875 10.4112061,1.875 C13.1919819,1.875 15.4462461,4.12926423 15.4462461,6.91004008 C15.4462461,9.69081592 13.1919819,11.9450802 10.4112061,11.9450802 Z M0.00972668456,20.9104791 C0.0435855435,20.4454184 0.165548485,19.9885839 0.373595865,19.557139 C1.03645438,18.2314219 2.59382246,17.433661 4.54049133,17.0343744 C5.54907423,16.8191422 6.57158826,16.6753512 7.5831751,16.6054269 C9.46109958,16.4404672 11.3498709,16.4404672 13.2113039,16.6041248 C14.239546,16.6761893 15.2615077,16.8199026 16.2632068,17.0328525 C18.3057509,17.4518359 19.7889769,18.1951006 20.4455031,19.5738059 C20.9332492,20.5995299 20.9332492,21.7903444 20.4452809,22.8165354 C19.8236638,24.1219313 18.4490878,24.8629819 16.6080985,25.2733009 L15.6705615,25.4680006 C14.8580951,25.6232719 14.0387807,25.7292519 13.2249509,25.784693 C11.697797,25.914155 10.1635136,25.9377593 8.68351727,25.8566935 L8.3143925,25.8539066 L8.12675597,25.8469027 L7.86872176,25.8277895 C7.75083292,25.81597 7.65454193,25.8012571 7.60192345,25.785905 C6.77818885,25.7301706 5.95883577,25.6240416 5.16166935,25.4709533 L4.23540243,25.2782232 C2.37742072,24.867134 1.00145304,24.1255189 0.364983682,22.8150496 C0.164396557,22.3919054 0.0443904969,21.9359785 0.010185284,21.4705653 L0,21.1903655 L0.00972668456,20.9104791 Z M1.87498186,21.1856784 L1.88646003,21.4024437 C1.90952869,21.6128864 1.96703048,21.8173617 2.05541026,22.0038752 C2.36972755,22.650999 3.29549726,23.1455406 4.65488495,23.4500887 L5.41127656,23.6090929 C6.17920794,23.7606739 6.97011689,23.8651878 7.84906951,23.9312492 C7.9230717,23.9460497 8.00097288,23.9570477 8.08679509,23.9648765 L8.22197194,23.9743218 L8.73393456,23.9830501 C10.1779541,24.0608198 11.625625,24.0385479 13.0819256,23.9152194 C13.8327854,23.8639744 14.5796973,23.7674779 15.3302613,23.6238735 L16.1866108,23.4456014 C17.5231256,23.1438381 18.4478394,22.6500238 18.7521952,22.0108769 C18.9976851,21.4946146 18.9976851,20.8952598 18.7524174,20.3794644 C18.4266904,19.6954378 17.3970704,19.1794812 15.8798976,18.868242 C14.9569617,18.6720587 14.0214633,18.5405042 13.0637243,18.4732346 C11.2949704,18.3178646 9.51600012,18.3178646 7.73000663,18.4745889 C6.7891784,18.5397708 5.85412258,18.671263 4.92453397,18.8696076 C3.48483102,19.1649313 2.38408522,19.7287877 2.0566393,20.3834591 C1.93606106,20.6336216 1.87394678,20.9079446 1.87498186,21.1856784 Z" id="Combined-Shape"></path>
            </g>
        </g>
    </g>
</svg>